/* XPM */
static char *bitcoinrm32[] = {
/* columns rows colors chars-per-pixel */
"32 32 71 1 ",
"  c #FF1115",
". c #FF1216",
"X c #FF1316",
"o c #FF1317",
"O c #FF1418",
"+ c #FF1519",
"@ c #FF161A",
"# c #FF191C",
"$ c #FF191D",
"% c #FF1B1E",
"& c #FF1D21",
"* c #FF1F23",
"= c #FF2124",
"- c #FF2225",
"; c #FF2427",
": c #FF3337",
"> c #FF3438",
", c #FF3538",
"< c #FF373A",
"1 c #FF3B3E",
"2 c #FF3C3F",
"3 c #FF3E41",
"4 c #FF3F42",
"5 c #FF4649",
"6 c #FF484C",
"7 c #FF494C",
"8 c #FF4A4D",
"9 c #FF4C4F",
"0 c #FF4D50",
"q c #FF5356",
"w c #FF5558",
"e c #FF5658",
"r c #FF5659",
"t c #FF5A5C",
"y c #FF5C5F",
"u c #FF5D60",
"i c #FF6264",
"p c #FF6365",
"a c #FF6366",
"s c #FF6668",
"d c #FF6D6F",
"f c #FF777A",
"g c #FF787A",
"h c #FF8083",
"j c #FF8486",
"k c #FF9799",
"l c #FF9FA0",
"z c #FF9FA1",
"x c #FFA0A2",
"c c #FFA1A3",
"v c #FFABAC",
"b c #FFADAE",
"n c #FFB0B2",
"m c #FFB4B5",
"M c #FFB5B7",
"N c #FFB6B7",
"B c #FFB8B9",
"V c #FFBBBD",
"C c #FFBDBF",
"Z c #FFBEBF",
"A c #FFBEC0",
"S c #FFC4C5",
"D c #FFC7C8",
"F c #FFC8C9",
"G c #FFCFD0",
"H c #FFD2D3",
"J c #FFD9D9",
"K c #FFE3E4",
"L c #FFFBFB",
"P c white",
"I c None",
/* pixels */
"IIIIIIIIIIIIIPPPPPPIIIIIIIIIIIII",
"IIIIIIIIIIPPPPPPPPPPPPIIIIIIIIII",
"IIIIIIIIPPPe        iPPPIIIIIIII",
"IIIIIIPPP             .PPPIIIIII",
"IIIIIPPz                BPPIIIII",
"IIIIPP;                  :PPIIII",
"IIIPP;        2xc4        >PPIII",
"IIIPl      <PPPPPPPP3      APIII",
"IIPP      PPPPPPPPPPPP      PPII",
"IIP      PPPPPPPPPPPPPP     OPII",
"IPP     PPP*P=PPPPPPPPPP     PPI",
"IPw    1PPP P PPPPPPPPPP7    fPI",
"IP     PP      SPP   ,PPP     PI",
"PP     PPP  PP  PP NP  PP     PP",
"PP    5PPP  PPq PK d% PPPr    PP",
"PP    vPPP  #  &P  P- PPPV    PP",
"PP    bPPP  JG  fP LPP@ PC    PP",
"PP    9PPP  PPP  n  P8  Py    PP",
"PP     PPP  PP+   m M+okP     PP",
"IP     PP      XP PPhP PP     PI",
"IPi    0PPP P PPPPPPPPPPu    jPI",
"IPP     PPP P PPPPPPPPPP     PPI",
"IIP.     PPPPPPPPPPPPPP     $PII",
"IIPP      PPPPPPPPPPPP      PPII",
"IIIPB      tPPPPPPPPp      HPIII",
"IIIPP:        aDFs        7PPIII",
"IIIIPP,                  6PPIIII",
"IIIIIPPZ                HPPIIIII",
"IIIIIIPPPO            $PPPIIIIII",
"IIIIIIIIPPPg        jPPPIIIIIIII",
"IIIIIIIIIIPPPPPPPPPPPPIIIIIIIIII",
"IIIIIIIIIIIIIPPPPPPIIIIIIIIIIIII"
};
