/* XPM */
static char *bitcoinrm64[] = {
/* columns rows colors chars-per-pixel */
"64 64 181 2 ",
"   c #FF1115",
".  c #FF1216",
"X  c #FF1317",
"o  c #FF1417",
"O  c #FF1418",
"+  c #FF1519",
"@  c #FF161A",
"#  c #FF181C",
"$  c #FF1A1E",
"%  c #FF1B1F",
"&  c #FF1C20",
"*  c #FF1D20",
"=  c #FF1D21",
"-  c #FF2023",
";  c #FF2024",
":  c #FF2125",
">  c #FF2226",
",  c #FF2327",
"<  c #FF2428",
"1  c #FF2528",
"2  c #FF2529",
"3  c #FF2629",
"4  c #FF272A",
"5  c #FF282C",
"6  c #FF292C",
"7  c #FF2A2D",
"8  c #FF2A2E",
"9  c #FF2B2F",
"0  c #FF2C30",
"q  c #FF2F32",
"w  c #FF3033",
"e  c #FF3134",
"r  c #FF3236",
"t  c #FF3336",
"y  c #FF3438",
"u  c #FF3538",
"i  c #FF3539",
"p  c #FF3639",
"a  c #FF373B",
"s  c #FF3C3F",
"d  c #FF3E41",
"f  c #FF4043",
"g  c #FF4144",
"h  c #FF4145",
"j  c #FF4245",
"k  c #FF4548",
"l  c #FF4649",
"z  c #FF5053",
"x  c #FF5154",
"c  c #FF5255",
"v  c #FF5355",
"b  c #FF595C",
"n  c #FF5B5E",
"m  c #FF5C5F",
"M  c #FF5D5F",
"N  c #FF5E61",
"B  c #FF5F61",
"V  c #FF5F62",
"C  c #FF6062",
"Z  c #FF6063",
"A  c #FF6163",
"S  c #FF6164",
"D  c #FF6264",
"F  c #FF6265",
"G  c #FF6365",
"H  c #FF6366",
"J  c #FF6467",
"K  c #FF696C",
"L  c #FF6A6C",
"P  c #FF6B6E",
"I  c #FF6C6E",
"U  c #FF6C6F",
"Y  c #FF6D70",
"T  c #FF7072",
"R  c #FF7375",
"E  c #FF7376",
"W  c #FF7476",
"Q  c #FF7577",
"!  c #FF787A",
"~  c #FF7D7F",
"^  c #FF7D80",
"/  c #FF8082",
"(  c #FF8183",
")  c #FF8284",
"_  c #FF8285",
"`  c #FF8385",
"'  c #FF8386",
"]  c #FF8486",
"[  c #FF8587",
"{  c #FF8688",
"}  c #FF8A8C",
"|  c #FF8C8E",
" . c #FF8D8F",
".. c #FF8E8F",
"X. c #FF9092",
"o. c #FF9192",
"O. c #FF9193",
"+. c #FF9294",
"@. c #FF9394",
"#. c #FF9496",
"$. c #FF9597",
"%. c #FF9697",
"&. c #FF9698",
"*. c #FF9799",
"=. c #FF9899",
"-. c #FF989A",
";. c #FF9C9D",
":. c #FF9C9E",
">. c #FF9D9E",
",. c #FFA0A1",
"<. c #FFA1A3",
"1. c #FFA2A3",
"2. c #FFA2A4",
"3. c #FFA3A4",
"4. c #FFA3A5",
"5. c #FFA4A5",
"6. c #FFA5A6",
"7. c #FFA5A7",
"8. c #FFA6A7",
"9. c #FFA6A8",
"0. c #FFA7A9",
"q. c #FFA8A9",
"w. c #FFABAC",
"e. c #FFADAE",
"r. c #FFADAF",
"t. c #FFB0B1",
"y. c #FFB0B2",
"u. c #FFB2B3",
"i. c #FFB3B4",
"p. c #FFB4B5",
"a. c #FFB4B6",
"s. c #FFB5B6",
"d. c #FFB7B9",
"f. c #FFBDBE",
"g. c #FFBEBF",
"h. c #FFBFC0",
"j. c #FFC2C3",
"k. c #FFC3C4",
"l. c #FFC4C5",
"z. c #FFC6C7",
"x. c #FFC7C8",
"c. c #FFC8C9",
"v. c #FFCACB",
"b. c #FFCCCD",
"n. c #FFCECF",
"m. c #FFCFCF",
"M. c #FFD0D0",
"N. c #FFD0D1",
"B. c #FFD2D3",
"V. c #FFD3D3",
"C. c #FFD8D8",
"Z. c #FFDADA",
"A. c #FFDADB",
"S. c #FFDBDB",
"D. c #FFDCDD",
"F. c #FFDDDE",
"G. c #FFDEDF",
"H. c #FFDFDF",
"J. c #FFE0E0",
"K. c #FFE3E3",
"L. c #FFE4E5",
"P. c #FFE6E6",
"I. c #FFE6E7",
"U. c #FFE7E8",
"Y. c #FFEBEB",
"T. c #FFEBEC",
"R. c #FFEDED",
"E. c #FFEEEE",
"W. c #FFF1F1",
"Q. c #FFF4F4",
"!. c #FFF4F5",
"~. c #FFF5F5",
"^. c #FFF8F8",
"/. c snow",
"(. c #FFFBFB",
"). c #FFFCFC",
"_. c #FFFCFD",
"`. c #FFFDFD",
"'. c #FFFEFE",
"]. c white",
"[. c None",
/* pixels */
"[.[.[.[.[.[.[.[.[.[.[.[.[.[.[.[.[.[.[.[.[.[.[.[.[.[.[.[.[.].].].].].].[.[.[.[.[.[.[.[.[.[.[.[.[.[.[.[.[.[.[.[.[.[.[.[.[.[.[.[.[.",
"[.[.[.[.[.[.[.[.[.[.[.[.[.[.[.[.[.[.[.[.[.[.[.[.].].].].].].].].].].].].].].].].[.[.[.[.[.[.[.[.[.[.[.[.[.[.[.[.[.[.[.[.[.[.[.[.",
"[.[.[.[.[.[.[.[.[.[.[.[.[.[.[.[.[.[.[.[.[.].].].].].].].].].].].].].].].].].].].].].].[.[.[.[.[.[.[.[.[.[.[.[.[.[.[.[.[.[.[.[.[.",
"[.[.[.[.[.[.[.[.[.[.[.[.[.[.[.[.[.[.].].].].].].].].].].A.r.o.` ' +.t.G.].].].].].].].].].].[.[.[.[.[.[.[.[.[.[.[.[.[.[.[.[.[.[.",
"[.[.[.[.[.[.[.[.[.[.[.[.[.[.[.[.].].].].].].].E.C                             L Q.].].].].].].].[.[.[.[.[.[.[.[.[.[.[.[.[.[.[.[.",
"[.[.[.[.[.[.[.[.[.[.[.[.[.[.[.].].].].].].E                                         ( ].].].].].].[.[.[.[.[.[.[.[.[.[.[.[.[.[.[.",
"[.[.[.[.[.[.[.[.[.[.[.[.[.].].].].].'.j                                                 c ].].].].].].[.[.[.[.[.[.[.[.[.[.[.[.[.",
"[.[.[.[.[.[.[.[.[.[.[.[.].].].].].Z                                                         Q ].].].].].[.[.[.[.[.[.[.[.[.[.[.[.",
"[.[.[.[.[.[.[.[.[.[.[.].].].].C.                                                                I.].].].].[.[.[.[.[.[.[.[.[.[.[.",
"[.[.[.[.[.[.[.[.[.[.].].].].P                                                                     { ].].].].[.[.[.[.[.[.[.[.[.[.",
"[.[.[.[.[.[.[.[.[.].].].].w                                                                         j ].].].].[.[.[.[.[.[.[.[.[.",
"[.[.[.[.[.[.[.[.].].].].=                                                                             0 ].].].].[.[.[.[.[.[.[.[.",
"[.[.[.[.[.[.[.].].].].=                                                                                 0 ].].].].[.[.[.[.[.[.[.",
"[.[.[.[.[.[.].].].].w                               - ;./.].].].].].].(.,.,                               k ].].].].[.[.[.[.[.[.",
"[.[.[.[.[.[.].].].P                             :.].].].].].].].].].].].].].].4.                             .].].].[.[.[.[.[.[.",
"[.[.[.[.[.].].].C.                          >.].].].].].].].].].].].].].].].].].].9.                          T.].].].[.[.[.[.[.",
"[.[.[.[.].].].].                        : ].].].].].].].].].].].].].].].].].].].].].].4                         ].].].].[.[.[.[.",
"[.[.[.[.].].].Z                       V ].].].].].].].].].].].].].].].].].].].].].].].].U                       ` ].].].[.[.[.[.",
"[.[.[.].].].'.                      ^ ].].].].].].].].].].].].].].].].].].].].].].].].].]...                      ].].].].[.[.[.",
"[.[.[.].].].h                     A ].].].].].].].].].].].].].].].].].].].].].].].].].].].].T                     F ].].].[.[.[.",
"[.[.[.].].].                    > ].].].].].].].].].].].].].].].].].].].].].].].].].].].].].].8                     ].].].[.[.[.",
"[.[.].].].R                     ].].].].].].    ].m.  7 ].].].].].].].].].].].].].].].].].].].].                    &.].].].[.[.",
"[.[.].].].                    <.].].].].].].    ].n.  8 ].].].].].].].].].].].].].].].].].].].].u.                    ].].].[.[.",
"[.[.].].E.                    ].].].].].].].    ].n.  8 ].].].].].].].].].].].].].].].].].].].].].                    _.].].[.[.",
"[.].].].Z                   2.].].J.                    % Y `.].].].].].K.G.G.G.G.K.`.].].].].].].i.                  ` ].].].[.",
"[.].].].                    ].].].H.                          #.].].].].      X X       & ].].].].].                  o ].].].[.",
"[.].].].                  2 ].].].!.u.w.        I K H X         D.].].].      ].].].!     g ].].].].t                   ].].].[.",
"[.].].].                  5.].].].].].].D       ].].].].~       r ].].u.    + ].].].Z     ~ ].].].].s.                  ].].].[.",
"[.].].Z.                  `.].].].].].].G       ].].].].].      # ].].y     [ ].].$.    6 ].].].].].].                  ^.].].[.",
"].].].r.                  ].].].].].].].S       ].].].].L.      ] ].].              j K.].].].].].].].                  M.].].[.",
"].].].X.                  ].].].].].].].A       ].].).O.      + ].].'.      ].].;     b ].].].].].].].                  i.].].].",
"].].].)                   ].].].].].].].Z                     S.].].*.    1 ].].].<     9 ].].].].].].                  6.].].].",
"].].]._                   ].].].].].].].Z                       J ].].g.    =.].].].].].].X     ].].].                  7.].].].",
"].].].+.                  ].].].].].].].V       ].].].].E.        x.].b       ].].].].].=     3 ].].].                  a.].].].",
"].].].t.                  ].].].].].].].B       ].].].].].Y.      $ ].        f.].].].a       } ].].].                  B.].].[.",
"[.].].F.                  '.].].].].].].N       ].].].].].`.        ].    $     ].].Z         R.].].].                  /.].].[.",
"[.].].].                  e.].].].].].].N       ].].].].].:       r ).    `.    J.$.  . ].    ].].].g.                  ].].].[.",
"[.].].].                  q ].].].].z z         v c z 8           W.3.    ].-.  <   $ ].h.    ].].].d                   ].].].[.",
"[.].].].                    ].].].].                            c.].d   M ].].%   5 ].].n   f ].].].                  @ ].].].[.",
"[.].].].L                   i.].].^.                      X ~ ].].].* * k.].].].].].].].= * q.].].k.                  | ].].].[.",
"[.[.].].Q.                    ].].].].].].].    ].l.  u ].].].].].].].].].].].].].].].].].].].].].X                   '.].].[.[.",
"[.[.].].].                    d.].].].].].].    ].l.  i ].].].].].].].].].].].].].].].].].].].].x.                  . ].].].[.[.",
"[.[.].].].(                     ].].].].].].    ].k.  p ].].].].].].].].].].].].].].].].].].].].                    5.].].].[.[.",
"[.[.[.].].].                    e ].].].].].U.P.].^.L.U.].].].].].].].].].].].].].].].].].].].s                     ].].].[.[.[.",
"[.[.[.].].].x                     / ].].].].].].].].].].].].].].].].].].].].].].].].].].].].O.                    R ].].].[.[.[.",
"[.[.[.].].].].                      1.].].].].].].].].].].].].].].].].].].].].].].].].].].y.                      ].].].].[.[.[.",
"[.[.[.[.].].].Q                       ] ].].].].].].].].].].].].].].].].].].].].].].].].@.                      *.].].].[.[.[.[.",
"[.[.[.[.].].].].                        i ].].].].].].].].].].].].].].].].].].].].].].d                       O ].].].[.[.[.[.[.",
"[.[.[.[.[.].].].I.                          k.].].].].].].].].].].].].].].].].].].b.                          ~.].].].[.[.[.[.[.",
"[.[.[.[.[.[.].].].{                           . k.].].].].].].].].].].].].].].v.O                           0.].].].[.[.[.[.[.[.",
"[.[.[.[.[.[.].].].].j                               g j.].].].].].].].].z.l                               m ].].].].[.[.[.[.[.[.",
"[.[.[.[.[.[.[.].].].].9                                                                                 d ].].].].[.[.[.[.[.[.[.",
"[.[.[.[.[.[.[.[.].].].].0                                                                             d ].].].].[.[.[.[.[.[.[.[.",
"[.[.[.[.[.[.[.[.[.].].].].k                                                                         m ].].].].[.[.[.[.[.[.[.[.[.",
"[.[.[.[.[.[.[.[.[.[.].].].].|                                                                     0.].].].].[.[.[.[.[.[.[.[.[.[.",
"[.[.[.[.[.[.[.[.[.[.[.].].].].T.                                                              O ~.].].].].[.[.[.[.[.[.[.[.[.[.[.",
"[.[.[.[.[.[.[.[.[.[.[.[.].].].].].`                                                         *.].].].].].[.[.[.[.[.[.[.[.[.[.[.[.",
"[.[.[.[.[.[.[.[.[.[.[.[.[.].].].].].].G                                                 W ].].].].].].[.[.[.[.[.[.[.[.[.[.[.[.[.",
"[.[.[.[.[.[.[.[.[.[.[.[.[.[.[.].].].].].].%.                                      . 5.].].].].].].[.[.[.[.[.[.[.[.[.[.[.[.[.[.[.",
"[.[.[.[.[.[.[.[.[.[.[.[.[.[.[.[.].].].].].].].`.` o                         @  .'.].].].].].].[.[.[.[.[.[.[.[.[.[.[.[.[.[.[.[.[.",
"[.[.[.[.[.[.[.[.[.[.[.[.[.[.[.[.[.[.].].].].].].].].].].^.N.i.7.8.p.V./.].].].].].].].].].].[.[.[.[.[.[.[.[.[.[.[.[.[.[.[.[.[.[.",
"[.[.[.[.[.[.[.[.[.[.[.[.[.[.[.[.[.[.[.[.[.].].].].].].].].].].].].].].].].].].].].].].[.[.[.[.[.[.[.[.[.[.[.[.[.[.[.[.[.[.[.[.[.",
"[.[.[.[.[.[.[.[.[.[.[.[.[.[.[.[.[.[.[.[.[.[.[.[.].].].].].].].].].].].].].].].].[.[.[.[.[.[.[.[.[.[.[.[.[.[.[.[.[.[.[.[.[.[.[.[.",
"[.[.[.[.[.[.[.[.[.[.[.[.[.[.[.[.[.[.[.[.[.[.[.[.[.[.[.[.[.[.].].].].[.[.[.[.[.[.[.[.[.[.[.[.[.[.[.[.[.[.[.[.[.[.[.[.[.[.[.[.[.[."
};
