/* XPM */
static char *bitcoinrm128[] = {
/* columns rows colors chars-per-pixel */
"128 128 59 1 ",
"  c #FF1115",
". c #FF1519",
"X c #FF191D",
"o c #FF1E21",
"O c #FF2225",
"+ c #FF2629",
"@ c #FF2A2D",
"# c #FF2E31",
"$ c #FF3134",
"% c #FF3639",
"& c #FF3A3D",
"* c #FF3E42",
"= c #FF4245",
"- c #FF4649",
"; c #FF4A4E",
": c #FF4D50",
"> c #FF5255",
", c #FF5659",
"< c #FF5A5D",
"1 c #FF5E61",
"2 c #FF6164",
"3 c #FF676A",
"4 c #FF6A6D",
"5 c #FF6E71",
"6 c #FF7274",
"7 c #FF7679",
"8 c #FF7B7E",
"9 c #FF7E81",
"0 c #FF8385",
"q c #FF8688",
"w c #FF8A8C",
"e c #FF8F90",
"r c #FF9294",
"t c #FF9698",
"y c #FF9A9C",
"u c #FF9FA0",
"i c #FFA2A3",
"p c #FFA7A8",
"a c #FFABAD",
"s c #FFAFB0",
"d c #FFB3B4",
"f c #FFB7B9",
"g c #FFBCBD",
"h c #FFBFC0",
"j c #FFC3C4",
"k c #FFC7C8",
"l c #FFCACB",
"z c #FFCFD0",
"x c #FFD4D5",
"c c #FFD7D8",
"v c #FFDBDB",
"b c #FFDFE0",
"n c #FFE3E4",
"m c #FFE7E8",
"M c #FFECEC",
"N c #FFEFF0",
"B c #FFF4F4",
"V c #FFFFFF",
"C c None",
/* pixels */
"CCCCCCCCCCCCCCCCCCCCCCCCCCCCCCCCCCCCCCCCCCCCCCCCCCCCCCCCCCCCCCCCCCCCCCCCCCCCCCCCCCCCCCCCCCCCCCCCCCCCCCCCCCCCCCCCCCCCCCCCCCCCCCCC",
"CCCCCCCCCCCCCCCCCCCCCCCCCCCCCCCCCCCCCCCCCCCCCCCCCCCCCCVVVVVVVVVVVVVVVVVVVVCCCCCCCCCCCCCCCCCCCCCCCCCCCCCCCCCCCCCCCCCCCCCCCCCCCCCC",
"CCCCCCCCCCCCCCCCCCCCCCCCCCCCCCCCCCCCCCCCCCCCCCCCCVVVVVVVVVVVVVVVVVVVVVVVVVVVVVVCCCCCCCCCCCCCCCCCCCCCCCCCCCCCCCCCCCCCCCCCCCCCCCCC",
"CCCCCCCCCCCCCCCCCCCCCCCCCCCCCCCCCCCCCCCCCCCCCVVVVVVVVVVVVVVVVVVVVVVVVVVVVVVVVVVVVVVCCCCCCCCCCCCCCCCCCCCCCCCCCCCCCCCCCCCCCCCCCCCC",
"CCCCCCCCCCCCCCCCCCCCCCCCCCCCCCCCCCCCCCCCCCVVVVVVVVVVVVVVVVVVVVVVVVVVVVVVVVVVVVVVVVVVVVCCCCCCCCCCCCCCCCCCCCCCCCCCCCCCCCCCCCCCCCCC",
"CCCCCCCCCCCCCCCCCCCCCCCCCCCCCCCCCCCCCCCCVVVVVVVVVVVVVVVVVVVVVVVVVVVVVVVVVVVVVVVVVVVVVVVVCCCCCCCCCCCCCCCCCCCCCCCCCCCCCCCCCCCCCCCC",
"CCCCCCCCCCCCCCCCCCCCCCCCCCCCCCCCCCCCCVVVVVVVVVVVVVVVVVVVVVVVVVBBBBVVVVVVVVVVVVVVVVVVVVVVVVCCCCCCCCCCCCCCCCCCCCCCCCCCCCCCCCCCCCCC",
"CCCCCCCCCCCCCCCCCCCCCCCCCCCCCCCCCCCVVVVVVVVVVVVVVVVVBcde6,=#O.. ..XO$=<6rfnBVVVVVVVVVVVVVVVVCCCCCCCCCCCCCCCCCCCCCCCCCCCCCCCCCCCC",
"CCCCCCCCCCCCCCCCCCCCCCCCCCCCCCCCCCVVVVVVVVVVVVVVBf6*X                      X-9jBVVVVVVVVVVVVVVCCCCCCCCCCCCCCCCCCCCCCCCCCCCCCCCCC",
"CCCCCCCCCCCCCCCCCCCCCCCCCCCCCCCCVVVVVVVVVVVVVBi,X                              o2dBVVVVVVVVVVVVVCCCCCCCCCCCCCCCCCCCCCCCCCCCCCCCC",
"CCCCCCCCCCCCCCCCCCCCCCCCCCCCCCVVVVVVVVVVVVVg1.                                    o4kVVVVVVVVVVVVVCCCCCCCCCCCCCCCCCCCCCCCCCCCCCC",
"CCCCCCCCCCCCCCCCCCCCCCCCCCCCCVVVVVVVVVVVMr$                                          *iBVVVVVVVVVVVCCCCCCCCCCCCCCCCCCCCCCCCCCCCC",
"CCCCCCCCCCCCCCCCCCCCCCCCCCCVVVVVVVVVVVm9o                                              @eBVVVVVVVVVVVCCCCCCCCCCCCCCCCCCCCCCCCCCC",
"CCCCCCCCCCCCCCCCCCCCCCCCCCVVVVVVVVVVM0o                                                  OrBVVVVVVVVVVCCCCCCCCCCCCCCCCCCCCCCCCCC",
"CCCCCCCCCCCCCCCCCCCCCCCCCVVVVVVVVVBrO                                                      @iVVVVVVVVVVCCCCCCCCCCCCCCCCCCCCCCCCC",
"CCCCCCCCCCCCCCCCCCCCCCCVVVVVVVVVVj&                                                          -xVVVVVVVVVVCCCCCCCCCCCCCCCCCCCCCCC",
"CCCCCCCCCCCCCCCCCCCCCCVVVVVVVVVM4                                                             .0BVVVVVVVVVCCCCCCCCCCCCCCCCCCCCCC",
"CCCCCCCCCCCCCCCCCCCCCVVVVVVVVVg@                                                                %xVVVVVVVVVCCCCCCCCCCCCCCCCCCCCC",
"CCCCCCCCCCCCCCCCCCCCVVVVVVVVVq                                                                   XiVVVVVVVVVCCCCCCCCCCCCCCCCCCCC",
"CCCCCCCCCCCCCCCCCCCVVVVVVVVB,                                                                      6BVVVVVVVVCCCCCCCCCCCCCCCCCCC",
"CCCCCCCCCCCCCCCCCCVVVVVVVVn%                                                                        :NVVVVVVVVCCCCCCCCCCCCCCCCCC",
"CCCCCCCCCCCCCCCCCVVVVVVVVx+                                                                          &nVVVVVVVVCCCCCCCCCCCCCCCCC",
"CCCCCCCCCCCCCCCCVVVVVVVVkO                                                                            $vVVVVVVVVCCCCCCCCCCCCCCCC",
"CCCCCCCCCCCCCCCVVVVVVVVjo                                                                              @cVVVVVVVVCCCCCCCCCCCCCCC",
"CCCCCCCCCCCCCCCVVVVVVVkX                                                                                @vVVVVVVVCCCCCCCCCCCCCCC",
"CCCCCCCCCCCCCCVVVVVVVxO                                     .O#%%#O. .                                   $nVVVVVVVCCCCCCCCCCCCCC",
"CCCCCCCCCCCCCVVVVVVVn+                                .=6iknBVVVVVVVnki7=.                                &BVVVVVVVCCCCCCCCCCCCC",
"CCCCCCCCCCCCVVVVVVVB&                              O4dBVVVVVVVVVVVVVVVVVVBg6+                              >BVVVVVVVCCCCCCCCCCCC",
"CCCCCCCCCCCCVVVVVVV>                             ,gBVVVVVVVVVVVVVVVVVVVVVVVVVg1.                            7VVVVVVVCCCCCCCCCCCC",
"CCCCCCCCCCCVVVVVVVq                           X6vVVVVVVVVVVVVVVVVVVVVVVVVVVVVVVn7X                           iVVVVVVVCCCCCCCCCCC",
"CCCCCCCCCCVVVVVVVg                          .3nVVVVVVVVVVVVVVVVVVVVVVVVVVVVVVVVVVm6.                         XcVVVVVVVCCCCCCCCCC",
"CCCCCCCCCCVVVVVVM@                         *lVVVVVVVVVVVVVVVVVVVVVVVVVVVVVVVVVVVVVVc-                         =BVVVVVVCCCCCCCCCC",
"CCCCCCCCCVVVVVVV4                        .wVVVVVVVVVVVVVVVVVVVVVVVVVVVVVVVVVVVVVVVVVVtX                        wVVVVVVVCCCCCCCCC",
"CCCCCCCCCVVVVVVj                        $zVVVVVVVVVVVVVVVVVVVVVVVVVVVVVVVVVVVVVVVVVVVVc%                       XvVVVVVVCCCCCCCCC",
"CCCCCCCCVVVVVVB%                       >MVVVVVVVVVVVVVVVVVVVVVVVVVVVVVVVVVVVVVVVVVVVVVVB<                       >VVVVVVVCCCCCCCC",
"CCCCCCCVVVVVVVt                       5BVVVVVVVVVVVVVVVVVVVVVVVVVVVVVVVVVVVVVVVVVVVVVVVVV8                       fVVVVVVCCCCCCCC",
"CCCCCCCVVVVVVMO                      8VVVVVVVVVVVVVVVVVVVVVVVVVVVVVVVVVVVVVVVVVVVVVVVVVVVVw                      %BVVVVVVCCCCCCC",
"CCCCCCVVVVVVV8                      8VVVVVVVVVVVVVVVVVVVVVVVVVVVVVVVVVVVVVVVVVVVVVVVVVVVVVVw                      iVVVVVVCCCCCCC",
"CCCCCCVVVVVVmo                     6VVVVVVVVVVVVVVVVVVVVVVVVVVVVVVVVVVVVVVVVVVVVVVVVVVVVVVVV8                     #BVVVVVVCCCCCC",
"CCCCCCVVVVVV9                     >BVVVVVVVVVVVVVVVVVVVVVVVVVVVVVVVVVVVVVVVVVVVVVVVVVVVVVVVVV2                     iVVVVVVCCCCCC",
"CCCCCVVVVVVNo                    #MVVVVVVVVVVVVVVVVVVVVVVVVVVVVVVVVVVVVVVVVVVVVVVVVVVVVVVVVVVB*                    %BVVVVVVCCCCC",
"CCCCCVVVVVVr                    .xVVVVVVVVVBttttVVVftttcVVVVVVVVVVVVVVVVVVVVVVVVVVVVVVVVVVVVVVcX                    gVVVVVVCCCCC",
"CCCCVVVVVVV#                    rVVVVVVVVVVn   .VVV,   iVVVVVVVVVVVVVVVVVVVVVVVVVVVVVVVVVVVVVVVi                    :VVVVVVCCCCC",
"CCCCVVVVVVg                    =BVVVVVVVVVVn   XVVV<   iVVVVVVVVVVVVVVVVVVVVVVVVVVVVVVVVVVVVVVVV>                   .vVVVVVVCCCC",
"CCCCVVVVVV2                   .zVVVVVVVVVVVn   XVVV,   iVVVVVVVVVVVVVVVVVVVVVVVVVVVVVVVVVVVVVVVVvX                   0VVVVVVCCCC",
"CCCVVVVVVN.                   5VVVVVVVVVVVVb   .VVV,   iVVVVVVVVVVVVVVVVVVVVVVVVVVVVVVVVVVVVVVVVV9                   #VVVVVVCCCC",
"CCCVVVVVVi                   XnVVVVVVVVVVVVn   XVVV,   iVVVVVVVVVVVVVVVVVVVVVVVVVVVVVVVVVVVVVVVVVNO                   jVVVVVVCCC",
"CCCVVVVVV,                   7VVVVVVVVVVVVVn   XVVV,   iVVVVVVVVVVVVVVVVVVVVVVVVVVVVVVVVVVVVVVVVVVq                   8VVVVVVCCC",
"CCCVVVVVBX                  .nVVVVVa88988886   .899$   <wykBVVVVVVVVVVVVVVVVVVVVVVVVVVVVVVVVVVVVVVMX                  $VVVVVVCCC",
"CCVVVVVVf                   <VVVVVV4      .                O7nVVVVVVVVVVj333333333360yhBVVVVVVVVVVV6                   cVVVVVCCC",
"CCVVVVVV6                   gVVVVVV3                         opVVVVVVVVV3              .>gVVVVVVVVVl                   tVVVVVVCC",
"CCVVVVVV*                  @VVVVVVV3                           rVVVVVVVV@     <qqq6&      qVVVVVVVVV%                  2VVVVVVCC",
"CCVVVVVB.                  7VVVVVVV0&&&O       .     .          fVVVVVVc      zVVVVVy      cVVVVVVVVq                  $VVVVVVCC",
"CCVVVVVc                   gVVVVVVVVVVVB,      Xnnnvblt%        $VVVVVVt     OVVVVVVV+     sVVVVVVVVk                  .BVVVVVCC",
"CVVVVVVd                  XBVVVVVVVVVVVVl.     XVVVVVVVV8        jVVVVV<     2VVVVVVBX     lVVVVVVVVVO                  xVVVVVCC",
"CVVVVVVw                  ;VVVVVVVVVVVVVc      XVVVVVVVVV1       tVVVVVo     yVVVVVVu     *VVVVVVVVVV<                  dVVVVVVC",
"CVVVVVV6                  8VVVVVVVVVVVVVc      XVVVVVVVVVj       qVVVVl      vVVVVVgo    +cVVVVVVVVVVw                  rVVVVVVC",
"CVVVVVV,                  pVVVVVVVVVVVVVv      XVVVVVVVVVc       yVVVVw     +nnnxa<     *cVVVVVVVVVVVg                  7VVVVVVC",
"CVVVVVV*                  xVVVVVVVVVVVVVc     .XVVVVVVVVVa       cVVVV:               *pVVVVVVVVVVVVVn                  2VVVVVVC",
"CVVVVVV#                  MVVVVVVVVVVVVVc      oVVVVVVVVN$      =VVVVBX     $*$.    OiVVVVVVVVVVVVVVVB.                 >VVVVVVC",
"CVVVVVVo                 XVVVVVVVVVVVVVVv      XVVVVVVVx&      .lVVVVg      mVVko     4BVVVVVVVVVVVVVV@                 =VVVVVVC",
"CVVVVVVX                 #VVVVVVVVVVVVVVc      .ereew8-.      .dVVVVV9     &VVVVzo    .:MVVVVVVVVVVVVV*                 %VVVVVVC",
"CVVVVVB.                 &VVVVVVVVVVVVVVc                    XjVVVVVV*     8VVVVVxO     %vVVVVVVVVVVVV;                 $VVVVVVC",
"CVVVVVB.                 =VVVVVVVVVVVVVVc.                    #dVVVVM.     gVVVVVVc+     OkVVVVVVVVVVV>                 #VVVVVVC",
"CVVVVVB                  =VVVVVVVVVVVVVVc                       6BVVMds*   *0VVVVVVBgdddsd2---->VVVVVV>                 #VVVVVVC",
"CVVVVVV.                 &VVVVVVVVVVVVVVc      .222211;O         3VVVVV#     cVVVVVVVVVVVd     >VVVVVV;                 #VVVVVVC",
"CVVVVVV.                 #VVVVVVVVVVVVVVc      oVVVVVVVVg-        tVVVm      4VVVVVVVVVVkX     qVVVVVV=                 %VVVVVVC",
"CVVVVVVO                 oVVVVVVVVVVVVVVc      oVVVVVVVVVV6       OBVVg      .nVVVVVVVVcO      fVVVVVV@                 -VVVVVVC",
"CVVVVVV$                  BVVVVVVVVVVVVVc      oVVVVVVVVVVB-       aVVq       8VVVVVVVm$       mVVVVVVX                 >VVVVVVC",
"CVVVVVV=                  cVVVVVVVVVVVVVc      oVVVVVVVVVVVy       7VV>       oBVVVVVB=       @VVVVVVn                  3VVVVVVC",
"CVVVVVV<                  sVVVVVVVVVVVVVc      oVVVVVVVVVVVp       <VVO        eVVVVB<        1VVVVVVh                  8VVVVVVC",
"CVVVVVV6                  qVVVVVVVVVVVVVx      oVVVVVVVVVVV6       3Vv    6    @BVVV4    5X   rVVVVVVt                  tVVVVVVC",
"CVVVVVVr                  >VVVVVVVVVVVVVx      oVVVVVVVVVVlX       wVp    v5    iVVq    wj    jVVVVVV2                  fVVVVVVC",
"CVVVVVVf                  oVVVVVVVVVVVVVx      oVVVVVVVVVpO        xV7   +VB#   %Vi   .yVr   .BVVVVVV#                  cVVVVVCC",
"CCVVVVVc                   jVVVVVVVVvkkj>      Xklkkkjfq&         :VV-   ,VVh    rX  .sVV2   &VVVVVVc                  .BVVVVVCC",
"CCVVVVVVo                  0VVVVVVVV,             .              ovVBX   qVVV6      ojVVV$   4VVVVVVr                  &VVVVVVCC",
"CCVVVVVV-                  %VVVVVVVV+                           ojVVx    gVVVB#    +lVVVm    uVVVVVV=                  3VVVVVVCC",
"CCVVVVVV8                   kVVVVVVc                           *cVVVy    MVVVVjX  %cVVVVg    xVVVVVv                   uVVVVVVCC",
"CCVVVVVVj                   5VVVVVVi                         $yBVVVV3   $VVVVVVBvnVVVVVVq   oBVVVVV8                   nVVVVVCCC",
"CCCVVVVVBX                  XMVVVVVi<1<<<<<:   .<,<O   -116rxVVVVVVVatrtdVVVVVVVVVVVVVVVftrtiVVVVVB+                  &VVVVVVCCC",
"CCCVVVVVV2                   qVVVVVVVVVVVVVc   OVVV:   aVVVVVVVVVVVVVVVVVVVVVVVVVVVVVVVVVVVVVVVVVVy                   0VVVVVVCCC",
"CCCVVVVVVs                   OBVVVVVVVVVVVVc   OVVV:   aVVVVVVVVVVVVVVVVVVVVVVVVVVVVVVVVVVVVVVVVVB@                   xVVVVVVCCC",
"CCCVVVVVVBo                   0VVVVVVVVVVVVc   OVVV:   aVVVVVVVVVVVVVVVVVVVVVVVVVVVVVVVVVVVVVVVVVt                   &VVVVVVCCCC",
"CCCCVVVVVV4                   XnVVVVVVVVVVVc   OVVV;   aVVVVVVVVVVVVVVVVVVVVVVVVVVVVVVVVVVVVVVVVmO                   eVVVVVVCCCC",
"CCCCVVVVVVk                    ,VVVVVVVVVVVc   OVVV:   sVVVVVVVVVVVVVVVVVVVVVVVVVVVVVVVVVVVVVVVV4                   .nVVVVVVCCCC",
"CCCCVVVVVVV&                    pVVVVVVVVVVc   OVVV;   sVVVVVVVVVVVVVVVVVVVVVVVVVVVVVVVVVVVVVVVg                    1VVVVVVCCCCC",
"CCCCCVVVVVVi                    OnVVVVVVVVVn6558VVVr554lVVVVVVVVVVVVVVVVVVVVVVVVVVVVVVVVVVVVVVM+                    jVVVVVVCCCCC",
"CCCCCVVVVVVB@                    -BVVVVVVVVVVVVVVVVVVVVVVVVVVVVVVVVVVVVVVVVVVVVVVVVVVVVVVVVVVV>                    =VVVVVVVCCCCC",
"CCCCCCVVVVVVe                     5VVVVVVVVVVVVVVVVVVVVVVVVVVVVVVVVVVVVVVVVVVVVVVVVVVVVVVVVVV8                     sVVVVVVCCCCCC",
"CCCCCCVVVVVVBO                     eVVVVVVVVVVVVVVVVVVVVVVVVVVVVVVVVVVVVVVVVVVVVVVVVVVVVVVVVi                     &VVVVVVVCCCCCC",
"CCCCCCCVVVVVVr                      iVVVVVVVVVVVVVVVVVVVVVVVVVVVVVVVVVVVVVVVVVVVVVVVVVVVVVVs.                     dVVVVVVCCCCCCC",
"CCCCCCCVVVVVVB@                      iVVVVVVVVVVVVVVVVVVVVVVVVVVVVVVVVVVVVVVVVVVVVVVVVVVVVs.                     -VVVVVVVCCCCCCC",
"CCCCCCCCVVVVVVp                       rVVVVVVVVVVVVVVVVVVVVVVVVVVVVVVVVVVVVVVVVVVVVVVVVVVi                       kVVVVVVCCCCCCCC",
"CCCCCCCCVVVVVVV-                       6BVVVVVVVVVVVVVVVVVVVVVVVVVVVVVVVVVVVVVVVVVVVVVVV0                       3VVVVVVVCCCCCCCC",
"CCCCCCCCCVVVVVVx.                       :mVVVVVVVVVVVVVVVVVVVVVVVVVVVVVVVVVVVVVVVVVVVVM,                       OmVVVVVVCCCCCCCCC",
"CCCCCCCCCVVVVVVV0                        +dVVVVVVVVVVVVVVVVVVVVVVVVVVVVVVVVVVVVVVVVVVg@                        iVVVVVVVCCCCCCCCC",
"CCCCCCCCCCVVVVVVB%                         2nVVVVVVVVVVVVVVVVVVVVVVVVVVVVVVVVVVVVVVM5                         >VVVVVVVCCCCCCCCCC",
"CCCCCCCCCCVVVVVVVxX                         orBVVVVVVVVVVVVVVVVVVVVVVVVVVVVVVVVVVByO                         +nVVVVVVCCCCCCCCCCC",
"CCCCCCCCCCCVVVVVVVy                           #tBVVVVVVVVVVVVVVVVVVVVVVVVVVVVVVBi#                          .gVVVVVVVCCCCCCCCCCC",
"CCCCCCCCCCCCVVVVVVV6                            O9vVVVVVVVVVVVVVVVVVVVVVVVVVVnq+                            rVVVVVVVCCCCCCCCCCCC",
"CCCCCCCCCCCCVVVVVVVB>                              -tcVVVVVVVVVVVVVVVVVVVVnt;                              5VVVVVVVCCCCCCCCCCCCC",
"CCCCCCCCCCCCCVVVVVVVN&                                #3ykMVVVVVVVVVVMki4$                                >BVVVVVVVCCCCCCCCCCCCC",
"CCCCCCCCCCCCCCVVVVVVVn#                                    o%;,<<,;&O                                    =BVVVVVVVCCCCCCCCCCCCCC",
"CCCCCCCCCCCCCCCVVVVVVVv@                                                                                *MVVVVVVVCCCCCCCCCCCCCCC",
"CCCCCCCCCCCCCCCVVVVVVVVc@                                                                              *MVVVVVVVCCCCCCCCCCCCCCCC",
"CCCCCCCCCCCCCCCCVVVVVVVVv$                                                                            =MVVVVVVVVCCCCCCCCCCCCCCCC",
"CCCCCCCCCCCCCCCCCVVVVVVVVn*                                                                          >BVVVVVVVVCCCCCCCCCCCCCCCCC",
"CCCCCCCCCCCCCCCCCCVVVVVVVVB>                                                                        5BVVVVVVVVCCCCCCCCCCCCCCCCCC",
"CCCCCCCCCCCCCCCCCCCVVVVVVVVB6.                                                                    .rVVVVVVVVVCCCCCCCCCCCCCCCCCCC",
"CCCCCCCCCCCCCCCCCCCCVVVVVVVVViX                                                                  +gVVVVVVVVVCCCCCCCCCCCCCCCCCCCC",
"CCCCCCCCCCCCCCCCCCCCCVVVVVVVVVc=                                                                >nVVVVVVVVVCCCCCCCCCCCCCCCCCCCCC",
"CCCCCCCCCCCCCCCCCCCCCCVVVVVVVVVBwX                                                            OiVVVVVVVVVVCCCCCCCCCCCCCCCCCCCCCC",
"CCCCCCCCCCCCCCCCCCCCCCCVVVVVVVVVVv>                                                          3mVVVVVVVVVCCCCCCCCCCCCCCCCCCCCCCCC",
"CCCCCCCCCCCCCCCCCCCCCCCCCVVVVVVVVVVf%                                                      -kVVVVVVVVVVCCCCCCCCCCCCCCCCCCCCCCCCC",
"CCCCCCCCCCCCCCCCCCCCCCCCCCVVVVVVVVVVBi#                                                  &dVVVVVVVVVVVCCCCCCCCCCCCCCCCCCCCCCCCCC",
"CCCCCCCCCCCCCCCCCCCCCCCCCCCVVVVVVVVVVVBi%                                              =dVVVVVVVVVVVCCCCCCCCCCCCCCCCCCCCCCCCCCCC",
"CCCCCCCCCCCCCCCCCCCCCCCCCCCCCVVVVVVVVVVVVf>                                         .1jVVVVVVVVVVVVCCCCCCCCCCCCCCCCCCCCCCCCCCCCC",
"CCCCCCCCCCCCCCCCCCCCCCCCCCCCCCVVVVVVVVVVVVVc0#                                    %enVVVVVVVVVVVVCCCCCCCCCCCCCCCCCCCCCCCCCCCCCCC",
"CCCCCCCCCCCCCCCCCCCCCCCCCCCCCCCCVVVVVVVVVVVVVVj7#                              &0xVVVVVVVVVVVVVVCCCCCCCCCCCCCCCCCCCCCCCCCCCCCCCC",
"CCCCCCCCCCCCCCCCCCCCCCCCCCCCCCCCCCVVVVVVVVVVVVVVVct2$.                    .&4ynVVVVVVVVVVVVVVVCCCCCCCCCCCCCCCCCCCCCCCCCCCCCCCCCC",
"CCCCCCCCCCCCCCCCCCCCCCCCCCCCCCCCCCCCVVVVVVVVVVVVVVVVVBcdr72>=%$##$&=>38tfcBVVVVVVVVVVVVVVVVVCCCCCCCCCCCCCCCCCCCCCCCCCCCCCCCCCCCC",
"CCCCCCCCCCCCCCCCCCCCCCCCCCCCCCCCCCCCCCVVVVVVVVVVVVVVVVVVVVVVVVVVVVVVVVVVVVVVVVVVVVVVVVVVVVCCCCCCCCCCCCCCCCCCCCCCCCCCCCCCCCCCCCCC",
"CCCCCCCCCCCCCCCCCCCCCCCCCCCCCCCCCCCCCCCCVVVVVVVVVVVVVVVVVVVVVVVVVVVVVVVVVVVVVVVVVVVVVVVVCCCCCCCCCCCCCCCCCCCCCCCCCCCCCCCCCCCCCCCC",
"CCCCCCCCCCCCCCCCCCCCCCCCCCCCCCCCCCCCCCCCCCCVVVVVVVVVVVVVVVVVVVVVVVVVVVVVVVVVVVVVVVVVVCCCCCCCCCCCCCCCCCCCCCCCCCCCCCCCCCCCCCCCCCCC",
"CCCCCCCCCCCCCCCCCCCCCCCCCCCCCCCCCCCCCCCCCCCCCCVVVVVVVVVVVVVVVVVVVVVVVVVVVVVVVVVVVVCCCCCCCCCCCCCCCCCCCCCCCCCCCCCCCCCCCCCCCCCCCCCC",
"CCCCCCCCCCCCCCCCCCCCCCCCCCCCCCCCCCCCCCCCCCCCCCCCCCVVVVVVVVVVVVVVVVVVVVVVVVVVVVCCCCCCCCCCCCCCCCCCCCCCCCCCCCCCCCCCCCCCCCCCCCCCCCCC",
"CCCCCCCCCCCCCCCCCCCCCCCCCCCCCCCCCCCCCCCCCCCCCCCCCCCCCCCVVVVVVVVVVVVVVVVVVCCCCCCCCCCCCCCCCCCCCCCCCCCCCCCCCCCCCCCCCCCCCCCCCCCCCCCC",
"CCCCCCCCCCCCCCCCCCCCCCCCCCCCCCCCCCCCCCCCCCCCCCCCCCCCCCCCCCCCCCCCCCCCCCCCCCCCCCCCCCCCCCCCCCCCCCCCCCCCCCCCCCCCCCCCCCCCCCCCCCCCCCCC"
};
