/* XPM */
static char *bitcoinrm16[] = {
/* columns rows colors chars-per-pixel */
"16 16 21 1 ",
"  c #FF1115",
". c #FF2024",
"X c #FF4548",
"o c #FF4649",
"O c #FF5C5F",
"+ c #FF5D5F",
"@ c #FF5F62",
"# c #FF6264",
"$ c #FF6B6D",
"% c #FF7E80",
"& c #FFB1B2",
"* c #FFBDBF",
"= c #FFC3C4",
"- c #FFC5C6",
"; c #FFD1D2",
": c #FFD4D5",
"> c #FFE0E1",
", c #FFE2E3",
"< c #FFE7E7",
"1 c white",
"2 c None",
/* pixels */
"2222211111122222",
"22211      12222",
"221X        O122",
"21X   *11=   #22",
"21   111111   12",
"1   1$ 11111   2",
"1  -    1 %1:  1",
"1  11 1 1o 11  1",
"1  11 1 1 1 1  1",
"1  ;&   11. >  1",
"1   1@ 11111   2",
"21   111111   12",
"22+   ,11<   %22",
"221#        %122",
"22221      12222",
"2222221111222222"
};
